<svg id="Layer_1" xmlns="http://www.w3.org/2000/svg" viewBox="0 0 1000 1000"><defs><style>.cls-1{fill:#fff;}.cls-1,.cls-6{stroke:#231f20;}.cls-1,.cls-15,.cls-4,.cls-5,.cls-6{stroke-miterlimit:10;}.cls-1,.cls-4,.cls-5{stroke-width:10px;}.cls-2{fill:#f27072;}.cls-3{opacity:0.33;}.cls-15,.cls-4{fill:none;}.cls-15,.cls-4,.cls-5{stroke:#3a3a3a;}.cls-5{fill:#ef4545;}.cls-6{fill:#f89b5d;stroke-width:0.25px;}.cls-7{opacity:0.2;}.cls-8{fill:#f37374;}.cls-9{fill:#f9c4db;}.cls-10{fill:#f9c5db;}.cls-11{fill:#574234;}.cls-12{fill:#a58976;}.cls-13{fill:#38291f;}.cls-14{fill:#5fb5dc;opacity:0.1;}.cls-15{stroke-width:8px;}.cls-16{fill:#f15858;}</style></defs><title>Artboard 1</title><path id="Base_Cup" data-name="Base Cup" class="cls-1" d="M320.49,354.56H682.72L654.6,748.31A122.07,122.07,0,0,1,532.84,861.68H470.37A122.06,122.06,0,0,1,348.62,748.31Z"/><g id="Straw"><rect class="cls-1" x="475.06" y="146.28" width="54.33" height="642.96" rx="6.86"/><polygon class="cls-2" points="529.4 155.33 475.06 191.56 475.06 227.78 529.4 191.56 529.4 155.33"/><polygon class="cls-2" points="529.4 227.78 475.06 264 475.06 300.22 529.4 264 529.4 227.78"/><polygon class="cls-2" points="529.4 300.22 475.06 336.45 475.06 372.67 529.4 336.45 529.4 300.22"/><polygon class="cls-2" points="529.4 372.67 475.06 408.89 475.06 445.12 529.4 408.89 529.4 372.67"/><polygon class="cls-2" points="529.4 445.12 475.06 481.34 475.06 517.56 529.4 481.34 529.4 445.12"/><polygon class="cls-2" points="529.4 517.56 475.06 553.78 475.06 590.01 529.4 553.78 529.4 517.56"/><polygon class="cls-2" points="529.4 590.01 475.06 626.23 475.06 662.45 529.4 626.23 529.4 590.01"/><polygon class="cls-2" points="529.4 662.45 475.06 698.68 475.06 734.9 529.4 698.68 529.4 662.45"/><path class="cls-2" d="M529.4,734.9l-54.34,36.22v11.27a6.84,6.84,0,0,0,6.84,6.84h18.26a6.8,6.8,0,0,0,3.79-1.14l25.45-17Z"/><path class="cls-3" d="M518.81,146.36a6.75,6.75,0,0,1,1,3.53V779.13a6.87,6.87,0,0,1-6.87,6.86H472.33a6.61,6.61,0,0,1-1-.08,6.85,6.85,0,0,0,5.87,3.32h40.62a6.86,6.86,0,0,0,6.86-6.86V153.14A6.86,6.86,0,0,0,518.81,146.36Z"/><rect class="cls-4" x="475.06" y="143.39" width="54.33" height="642.96" rx="6.86"/></g><path id="Lid" class="cls-5" d="M336.21,318.34H316.92c-7.69,0-13.92,6.79-13.92,15.17v5.87c0,8.38,6.23,15.18,13.92,15.18H687.54c7.69,0,13.92-6.8,13.92-15.18v-5.87c0-8.38-6.23-15.17-13.92-15.17Z"/><g id="Liquid"><path class="cls-6" d="M668.46,465.62,648.08,748.18c-4.35,60.29-55,107-116.05,107H472.48c-61,0-111.7-46.72-116-107L336,465c-.78-10.8,6.25-22.78,18.81-20s41.93,4.82,70.77.15,75.15-19.35,140.24.31c46,18.35,71.34,2.72,83.92.18S669.23,454.85,668.46,465.62Z"/><path class="cls-7" d="M649.24,446.26l-1,.23a23.25,23.25,0,0,1,.64,7.25L628.52,735.32C624.17,795.41,573.61,842,512.7,842H453.26a116.7,116.7,0,0,1-53.95-13.14,116.54,116.54,0,0,0,73,25.55h59.44c60.91,0,111.47-46.55,115.81-106.64l20.35-281.58C668.7,455.42,661.79,443.74,649.24,446.26Z"/></g><g id="Mouth"><path class="cls-8" d="M475.06,576.65c0-17.51,12.17-31.7,27.17-31.7s27.17,14.19,27.17,31.7-12.17,31.69-27.17,31.69-27.17-14.19-27.17-31.69"/><path class="cls-9" d="M529.4,576.65c0,17.5-12.16,31.69-27.17,31.69s-27.16-14.19-27.16-31.69"/><path class="cls-10" d="M475.07,576.65s12.16-12.28,27.16-12.28,27.17,12.28,27.17,12.28"/></g><g id="Boba_Balls" data-name="Boba Balls"><circle class="cls-11" cx="426.4" cy="789.23" r="13.74"/><circle class="cls-12" cx="421.38" cy="782.78" r="2.16"/><path class="cls-13" d="M429.65,796.74c-5,2.15-10.29,1.2-12.81-2a7.21,7.21,0,0,0,.48,1.67c1.91,4.39,8,6,13.7,3.51s8.71-8,6.8-12.4a6.39,6.39,0,0,0-.89-1.49C437.57,790.05,434.61,794.59,429.65,796.74Z"/><circle class="cls-11" cx="466.01" cy="821.94" r="13.74"/><circle class="cls-12" cx="460.99" cy="815.48" r="2.16"/><path class="cls-13" d="M469.26,829.44c-5,2.15-10.29,1.2-12.81-2a7.07,7.07,0,0,0,.48,1.67c1.9,4.39,8,6,13.7,3.51s8.7-8,6.8-12.4a7.17,7.17,0,0,0-.89-1.49C477.17,822.76,474.22,827.29,469.26,829.44Z"/><circle class="cls-11" cx="549.08" cy="751.26" r="13.74"/><circle class="cls-12" cx="544.06" cy="744.8" r="2.16"/><path class="cls-13" d="M552.33,758.76c-5,2.15-10.29,1.2-12.81-2a7.07,7.07,0,0,0,.48,1.67c1.91,4.39,8,6,13.7,3.51s8.71-8,6.8-12.4a6.39,6.39,0,0,0-.89-1.49C560.25,752.08,557.29,756.61,552.33,758.76Z"/><circle class="cls-11" cx="401.07" cy="738.04" r="13.74"/><circle class="cls-12" cx="396.05" cy="731.59" r="2.16"/><path class="cls-13" d="M404.32,745.55c-5,2.15-10.28,1.2-12.8-2a6.56,6.56,0,0,0,.48,1.66c1.9,4.4,8,6,13.69,3.52s8.71-8,6.81-12.4a7.17,7.17,0,0,0-.89-1.49C412.24,738.86,409.29,743.4,404.32,745.55Z"/><circle class="cls-11" cx="488.7" cy="735.37" r="13.74"/><circle class="cls-12" cx="483.68" cy="728.92" r="2.16"/><path class="cls-13" d="M492,742.87c-5,2.16-10.29,1.21-12.81-2a7.07,7.07,0,0,0,.48,1.67c1.91,4.39,8,6,13.7,3.51s8.7-8,6.8-12.39a6.39,6.39,0,0,0-.89-1.49C499.86,736.19,496.91,740.72,492,742.87Z"/><circle class="cls-11" cx="452.26" cy="754.48" r="13.74"/><circle class="cls-12" cx="447.24" cy="748.03" r="2.16"/><path class="cls-13" d="M455.51,762c-5,2.15-10.29,1.21-12.81-2a6.65,6.65,0,0,0,.49,1.67c1.9,4.39,8,6,13.69,3.51s8.71-8,6.8-12.39a6.39,6.39,0,0,0-.89-1.49C463.43,755.3,460.48,759.83,455.51,762Z"/><circle class="cls-11" cx="581.43" cy="801.05" r="13.74"/><circle class="cls-12" cx="576.41" cy="794.6" r="2.16"/><path class="cls-13" d="M584.68,808.56c-5,2.15-10.29,1.2-12.81-2a7.21,7.21,0,0,0,.48,1.67c1.91,4.39,8,6,13.7,3.51s8.7-8,6.8-12.4a6.39,6.39,0,0,0-.89-1.49C592.59,801.87,589.64,806.41,584.68,808.56Z"/><circle class="cls-11" cx="511.17" cy="783.44" r="13.74"/><circle class="cls-12" cx="506.15" cy="776.98" r="2.16"/><path class="cls-13" d="M514.42,790.94c-5,2.15-10.29,1.21-12.81-2a7.07,7.07,0,0,0,.48,1.67c1.9,4.39,8,6,13.7,3.51s8.7-8,6.8-12.4a7.44,7.44,0,0,0-.89-1.49C522.33,784.26,519.38,788.79,514.42,790.94Z"/><circle class="cls-11" cx="597.34" cy="750.19" r="13.74"/><circle class="cls-12" cx="592.32" cy="743.73" r="2.16"/><path class="cls-13" d="M600.59,757.69c-5,2.15-10.29,1.21-12.81-2a6.63,6.63,0,0,0,.48,1.67c1.9,4.39,8,6,13.7,3.51s8.7-8,6.8-12.4a7.44,7.44,0,0,0-.89-1.49C608.5,751,605.55,755.54,600.59,757.69Z"/><circle class="cls-11" cx="534.99" cy="825.12" r="13.74"/><circle class="cls-12" cx="529.97" cy="818.67" r="2.16"/><path class="cls-13" d="M538.24,832.62c-5,2.15-10.29,1.21-12.81-2a7.07,7.07,0,0,0,.48,1.67c1.91,4.39,8,6,13.7,3.51s8.7-8,6.8-12.39a6.46,6.46,0,0,0-.89-1.5C546.15,825.94,543.2,830.47,538.24,832.62Z"/></g><path id="Cup_Inside_Opacity" data-name="Cup Inside Opacity" class="cls-14" d="M321.33,353H683.56L655.43,746.7A122.06,122.06,0,0,1,533.68,860.07H471.21A122.07,122.07,0,0,1,349.45,746.7Z"/><path id="Cup_Border" data-name="Cup Border" class="cls-4" d="M321.11,354.56H683.34L655.22,748.31A122.07,122.07,0,0,1,533.46,861.68H471A122.06,122.06,0,0,1,349.24,748.31Z"/><path class="cls-15" d="M406.44,528.65c-6.16-38.12,53.67-47.78,59.82-9.67"/><ellipse class="cls-16" cx="402.28" cy="548.66" rx="24.51" ry="13.28"/><path class="cls-15" d="M595.59,528.65c6.15-38.12-53.67-47.78-59.82-9.67"/><ellipse class="cls-16" cx="599.75" cy="548.66" rx="24.51" ry="13.28"/></svg>