<svg id="Layer_2" xmlns="http://www.w3.org/2000/svg" viewBox="0 0 1000 1000"><defs><style>.cls-1{fill:#fff;stroke:#231f20;stroke-miterlimit:10;stroke-width:25px;}.cls-2{fill:#231f20;}</style></defs><title>Artboard 1</title><path class="cls-1" d="M344.33,304.53,288,216c-36-72-135-27-90,54L351,531c-153-63-153,36-99,72L560.84,811.67a47.29,47.29,0,0,0,49.6,2.08L790.92,712.69a40.67,40.67,0,0,0,20.74-33.17C819.66,538.18,779,424.82,702,288c-22.1-50.83-98.72-67.29-105.6-9.47-1.83,15.39,6.14,37,15.6,63.47-7.28-25.65-16.47-46.17-25.89-61.94-27.07-45.27-97.62-37.53-99.41,16-.57,17,11.6,47.51,24.43,71.07-10.6-19.28-28.43-52-36.51-67.15-30.55-57.24-95.75-30.89-102.13,20.17-2.79,22.35,21,61.1,41.51,93.85L344.33,304.53"/><circle class="cls-2" cx="414.09" cy="414.01" r="12.64"/><circle class="cls-2" cx="512.21" cy="369.17" r="12.64"/><circle class="cls-2" cx="612.74" cy="344.66" r="12.64"/></svg>