<svg id="Boba" xmlns="http://www.w3.org/2000/svg" viewBox="0 0 720 720"><defs><style>.cls-1,.cls-8{fill:#fff;}.cls-1,.cls-6{stroke:#231f20;}.cls-1,.cls-4,.cls-5,.cls-6{stroke-miterlimit:10;}.cls-1,.cls-4,.cls-5{stroke-width:10px;}.cls-2{fill:#f27072;}.cls-3{opacity:0.33;}.cls-4{fill:none;}.cls-4,.cls-5{stroke:#3a3a3a;}.cls-5{fill:#ecf8fe;}.cls-6{fill:#f89d59;stroke-width:0.25px;}.cls-7{opacity:0.2;}.cls-9{fill:#f49aba;}.cls-10{fill:#f37374;}.cls-11{fill:#f9c4db;}.cls-12{fill:#f9c5db;}.cls-13{fill:#574234;}.cls-14{fill:#a58976;}.cls-15{fill:#38291f;}.cls-16{fill:#5fb5dc;opacity:0.1;}</style></defs><title>Artboard 1</title><path id="Base_Cup" data-name="Base Cup" class="cls-1" d="M215.46,244h288L481.1,557.1a97.05,97.05,0,0,1-96.8,90.14H334.63a97.06,97.06,0,0,1-96.81-90.14Z"/><g id="Straw"><rect class="cls-1" x="338.35" y="78.44" width="43.2" height="511.2" rx="5.46"/><polygon class="cls-2" points="381.55 85.64 338.35 114.44 338.35 143.24 381.55 114.44 381.55 85.64"/><polygon class="cls-2" points="381.55 143.24 338.35 172.04 338.35 200.84 381.55 172.04 381.55 143.24"/><polygon class="cls-2" points="381.55 200.84 338.35 229.64 338.35 258.44 381.55 229.64 381.55 200.84"/><polygon class="cls-2" points="381.55 258.44 338.35 287.24 338.35 316.04 381.55 287.24 381.55 258.44"/><polygon class="cls-2" points="381.55 316.04 338.35 344.84 338.35 373.64 381.55 344.84 381.55 316.04"/><polygon class="cls-2" points="381.55 373.64 338.35 402.44 338.35 431.24 381.55 402.44 381.55 373.64"/><polygon class="cls-2" points="381.55 431.24 338.35 460.04 338.35 488.84 381.55 460.04 381.55 431.24"/><polygon class="cls-2" points="381.55 488.84 338.35 517.64 338.35 546.44 381.55 517.64 381.55 488.84"/><path class="cls-2" d="M381.55,546.44l-43.2,28.8v9a5.44,5.44,0,0,0,5.44,5.44h14.52a5.46,5.46,0,0,0,3-.91l20.23-13.49Z"/><path class="cls-3" d="M373.14,78.5a5.44,5.44,0,0,1,.79,2.82V581.61a5.45,5.45,0,0,1-5.46,5.45H336.18a5,5,0,0,1-.78-.06,5.43,5.43,0,0,0,4.66,2.64h32.29a5.45,5.45,0,0,0,5.46-5.45V83.9A5.46,5.46,0,0,0,373.14,78.5Z"/><rect class="cls-4" x="338.35" y="76.14" width="43.2" height="511.2" rx="5.46"/></g><path id="Lid" class="cls-5" d="M228,215.24H212.62c-6.11,0-11.07,5.4-11.07,12.07V232c0,6.67,5,12.07,11.07,12.07H507.29c6.11,0,11.06-5.4,11.06-12.07v-4.66c0-6.67-5-12.07-11.06-12.07Z"/><g id="Liquid"><path class="cls-6" d="M492.12,332.34,475.91,557c-3.45,47.94-43.73,85.08-92.26,85.08H336.3c-48.53,0-88.81-37.14-92.27-85.08L227.79,331.83c-.62-8.59,5-18.11,15-15.87s33.34,3.84,56.27.13,59.75-15.39,111.5.24c36.61,14.59,56.72,2.16,66.72.14S492.73,323.78,492.12,332.34Z"/><path class="cls-7" d="M476.84,317l-.81.18a18.36,18.36,0,0,1,.5,5.77L460.36,546.78c-3.45,47.77-43.65,84.78-92.08,84.78H321a92.8,92.8,0,0,1-42.9-10.45,92.69,92.69,0,0,0,58.06,20.32h47.26c48.43,0,88.63-37,92.08-84.79l16.17-223.88C492.31,324.23,486.82,315,476.84,317Z"/></g><g id="Eyes"><circle cx="302.35" cy="380.84" r="21.6"/><circle class="cls-8" cx="293.71" cy="372.2" r="4.32"/><ellipse class="cls-9" cx="284.35" cy="402.44" rx="18" ry="7.2"/><circle cx="424.75" cy="380.84" r="21.6"/><circle class="cls-8" cx="416.11" cy="372.2" r="4.32"/><ellipse class="cls-9" cx="442.75" cy="402.44" rx="18" ry="7.2"/></g><g id="Mouth"><path class="cls-10" d="M338.35,449.24c0-13.92,9.67-25.2,21.6-25.2s21.6,11.28,21.6,25.2-9.67,25.2-21.6,25.2-21.6-11.28-21.6-25.2"/><path class="cls-11" d="M381.56,449.24c0,13.92-9.67,25.2-21.6,25.2s-21.6-11.28-21.6-25.2"/><path class="cls-12" d="M338.36,449.24s9.67-9.76,21.6-9.76,21.6,9.76,21.6,9.76"/></g><g id="Boba_Balls" data-name="Boba Balls"><circle class="cls-13" cx="299.66" cy="589.64" r="10.93"/><circle class="cls-14" cx="295.67" cy="584.51" r="1.72"/><path class="cls-15" d="M302.25,595.61c-3.95,1.71-8.18.95-10.18-1.61a5.3,5.3,0,0,0,.38,1.33c1.51,3.49,6.39,4.74,10.89,2.79s6.92-6.37,5.41-9.86a5.61,5.61,0,0,0-.71-1.18C308.54,590.29,306.19,593.9,302.25,595.61Z"/><circle class="cls-13" cx="331.15" cy="615.64" r="10.93"/><circle class="cls-14" cx="327.16" cy="610.51" r="1.72"/><path class="cls-15" d="M333.74,621.6c-3.95,1.72-8.18,1-10.18-1.6a5.42,5.42,0,0,0,.38,1.33c1.51,3.49,6.39,4.74,10.89,2.79s6.92-6.37,5.4-9.86a5.18,5.18,0,0,0-.7-1.18C340,616.29,337.68,619.89,333.74,621.6Z"/><circle class="cls-13" cx="397.21" cy="559.44" r="10.93"/><circle class="cls-14" cx="393.21" cy="554.31" r="1.72"/><path class="cls-15" d="M399.79,565.41c-4,1.71-8.18,1-10.18-1.61a5.3,5.3,0,0,0,.38,1.33c1.51,3.49,6.39,4.74,10.89,2.79s6.92-6.36,5.41-9.85a5.68,5.68,0,0,0-.71-1.19C406.08,560.1,403.74,563.7,399.79,565.41Z"/><circle class="cls-13" cx="279.53" cy="548.94" r="10.93"/><circle class="cls-14" cx="275.54" cy="543.81" r="1.72"/><path class="cls-15" d="M282.11,554.91c-3.94,1.71-8.18,1-10.18-1.61a5.75,5.75,0,0,0,.38,1.33c1.52,3.49,6.39,4.74,10.89,2.79s6.92-6.37,5.41-9.86a5.61,5.61,0,0,0-.71-1.18C288.41,549.59,286.06,553.19,282.11,554.91Z"/><circle class="cls-13" cx="349.2" cy="546.81" r="10.93"/><circle class="cls-14" cx="345.21" cy="541.68" r="1.72"/><path class="cls-15" d="M351.78,552.78c-3.95,1.71-8.18,1-10.18-1.61a5.18,5.18,0,0,0,.38,1.33c1.51,3.49,6.39,4.74,10.89,2.79s6.92-6.36,5.41-9.85a5.68,5.68,0,0,0-.71-1.19C358.07,547.47,355.73,551.07,351.78,552.78Z"/><circle class="cls-13" cx="320.23" cy="562.01" r="10.93"/><circle class="cls-14" cx="316.23" cy="556.88" r="1.72"/><path class="cls-15" d="M322.81,568c-3.95,1.71-8.18,1-10.18-1.6a5.23,5.23,0,0,0,.38,1.32c1.51,3.5,6.39,4.75,10.89,2.79s6.92-6.36,5.41-9.85a5.68,5.68,0,0,0-.71-1.19C329.1,562.66,326.76,566.26,322.81,568Z"/><circle class="cls-13" cx="422.92" cy="599.04" r="10.93"/><circle class="cls-14" cx="418.93" cy="593.91" r="1.72"/><path class="cls-15" d="M425.51,605c-3.95,1.71-8.18,1-10.18-1.6a5.23,5.23,0,0,0,.38,1.32c1.51,3.5,6.39,4.75,10.89,2.79s6.92-6.36,5.4-9.85a5.24,5.24,0,0,0-.7-1.19C431.8,599.69,429.45,603.29,425.51,605Z"/><circle class="cls-13" cx="367.06" cy="585.03" r="10.93"/><circle class="cls-14" cx="363.07" cy="579.9" r="1.72"/><path class="cls-15" d="M369.64,591c-3.94,1.71-8.17,1-10.18-1.61a5.75,5.75,0,0,0,.38,1.33c1.52,3.49,6.39,4.74,10.89,2.79s6.92-6.36,5.41-9.86a5.21,5.21,0,0,0-.71-1.18C375.94,585.68,373.59,589.29,369.64,591Z"/><circle class="cls-13" cx="435.57" cy="558.6" r="10.93"/><circle class="cls-14" cx="431.58" cy="553.46" r="1.72"/><path class="cls-15" d="M438.16,564.56c-4,1.71-8.18,1-10.19-1.61a5.62,5.62,0,0,0,.38,1.33c1.52,3.49,6.39,4.74,10.89,2.79s6.93-6.36,5.41-9.85A5.24,5.24,0,0,0,444,556C444.45,559.25,442.1,562.85,438.16,564.56Z"/><circle class="cls-13" cx="386" cy="618.17" r="10.93"/><circle class="cls-14" cx="382.01" cy="613.04" r="1.72"/><path class="cls-15" d="M388.58,624.14c-3.94,1.71-8.18,1-10.18-1.61a5.75,5.75,0,0,0,.38,1.33c1.52,3.49,6.39,4.74,10.89,2.79s6.92-6.36,5.41-9.86a5.21,5.21,0,0,0-.71-1.18C394.88,618.82,392.53,622.43,388.58,624.14Z"/></g><path id="Cup_Inside_Opacity" data-name="Cup Inside Opacity" class="cls-16" d="M216.12,242.76h288L481.76,555.82A97,97,0,0,1,385,646H335.29a97,97,0,0,1-96.8-90.14Z"/><path id="Cup_Border" data-name="Cup Border" class="cls-4" d="M216,244H504L481.59,557.1a97.05,97.05,0,0,1-96.8,90.14H335.12a97,97,0,0,1-96.8-90.14Z"/></svg>