<svg xmlns="http://www.w3.org/2000/svg" viewBox="0 0 1000 1000"><defs><style>.cls-1{fill:#fff;}.cls-1,.cls-3,.cls-4,.cls-5{stroke:#414042;stroke-miterlimit:10;stroke-width:15px;}.cls-2{fill:#707071;}.cls-3{fill:#e8e8e8;}.cls-4{fill:none;}.cls-5{fill:#5c5c5c;}.cls-6{fill:#414042;}</style></defs><title>Artboard 1</title><g id="Layer_6" data-name="Layer 6"><path class="cls-1" d="M180.11,385.55,215.38,315h576l35.28,70.55a1,1,0,0,1-.89,1.45H181A1,1,0,0,1,180.11,385.55Z"/></g><g id="Layer_4" data-name="Layer 4"><path class="cls-2" d="M288,315l-18,72H181.62a1,1,0,0,1-.9-1.45L216,315Z"/><polygon class="cls-2" points="333 315 315 387 405 387 414 315 333 315"/><polygon class="cls-2" points="459 315 450 387 558 387 549 315 459 315"/><polygon class="cls-2" points="594 315 603 387 693 387 675 315 594 315"/><path class="cls-2" d="M720,315l18,72h88.38a1,1,0,0,0,.9-1.45L792,315Z"/></g><g id="Layer_3" data-name="Layer 3"><path class="cls-3" d="M241,207H767a25,25,0,0,1,25,25v83H216V232A25,25,0,0,1,241,207Z"/><path class="cls-4" d="M180.72,385.55,216,315H792l35.28,70.55a1,1,0,0,1-.9,1.45H181.62A1,1,0,0,1,180.72,385.55Z"/><path class="cls-5" d="M180,398V388a1,1,0,0,1,1-1H827a1,1,0,0,1,1,1v10a25,25,0,0,1-25,25H205A25,25,0,0,1,180,398Z"/><path class="cls-3" d="M216,758V423H792V758a25,25,0,0,1-25,25H241A25,25,0,0,1,216,758Z"/></g><g id="Layer_2" data-name="Layer 2"><path class="cls-1" d="M324,783V546a15,15,0,0,1,15-15H453a15,15,0,0,1,15,15V783Z"/><path class="cls-1" d="M729,546V660c0,8.28-8.81,15-19.69,15H559.69c-10.88,0-19.69-6.72-19.69-15V546c0-8.28,8.81-15,19.69-15H709.31C720.19,531,729,537.72,729,546Z"/></g><g id="Layer_5" data-name="Layer 5"><circle class="cls-6" cx="270" cy="261" r="12.5"/><circle class="cls-6" cx="342" cy="261" r="12.5"/><circle class="cls-6" cx="738" cy="261" r="12.5"/><circle class="cls-6" cx="666" cy="261" r="12.5"/><circle class="cls-6" cx="414" cy="261" r="12.5"/><circle class="cls-6" cx="594" cy="261" r="12.5"/></g></svg>