<svg xmlns="http://www.w3.org/2000/svg" xmlns:xlink="http://www.w3.org/1999/xlink" viewBox="0 0 667.91 667.91"><defs><style>.cls-1{opacity:0.5;}.cls-2{fill:url(#radial-gradient);}.cls-3{fill:url(#radial-gradient-2);}.cls-4{fill:url(#radial-gradient-3);}.cls-5{fill:url(#radial-gradient-4);}.cls-6{fill:url(#radial-gradient-5);}.cls-7{fill:url(#radial-gradient-6);}.cls-8{fill:url(#radial-gradient-7);}.cls-9{fill:url(#radial-gradient-8);}</style><radialGradient id="radial-gradient" cx="335.26" cy="335.26" r="262.16" gradientTransform="translate(0 -67.05) scale(1 1.2)" gradientUnits="userSpaceOnUse"><stop offset="0" stop-color="#fff"/><stop offset="1" stop-color="#fff" stop-opacity="0"/></radialGradient><radialGradient id="radial-gradient-2" cx="335.26" cy="335.26" r="262.16" gradientTransform="matrix(-0.92, 0.38, -0.46, -1.11, 798.95, 578.64)" xlink:href="#radial-gradient"/><radialGradient id="radial-gradient-3" cx="335.26" cy="335.26" r="262.16" gradientTransform="translate(-186.28 287.84) rotate(-45) scale(1 1.2)" xlink:href="#radial-gradient"/><radialGradient id="radial-gradient-4" cx="335.26" cy="335.26" r="262.16" gradientTransform="translate(835.23 179.48) rotate(112.5) scale(1 1.2)" xlink:href="#radial-gradient"/><radialGradient id="radial-gradient-5" cx="335.26" cy="335.26" r="262.16" gradientTransform="translate(-67.05 670.51) rotate(-90) scale(1 1.2)" xlink:href="#radial-gradient"/><radialGradient id="radial-gradient-6" cx="335.26" cy="335.26" r="262.16" gradientTransform="matrix(0.38, 0.92, -1.11, 0.46, 578.64, -128.44)" xlink:href="#radial-gradient"/><radialGradient id="radial-gradient-7" cx="335.26" cy="335.26" r="262.16" gradientTransform="translate(287.84 856.79) rotate(-135) scale(1 1.2)" xlink:href="#radial-gradient"/><radialGradient id="radial-gradient-8" cx="335.26" cy="335.26" r="262.16" gradientTransform="translate(179.48 -164.72) rotate(22.5) scale(1 1.2)" xlink:href="#radial-gradient"/></defs><title>Artboard 1</title><g id="Layer_3" data-name="Layer 3" class="cls-1"><polygon class="cls-2" points="299.25 -33.74 371.25 -33.74 299.25 704.25 371.25 704.25 299.25 -33.74"/><polygon class="cls-3" points="509.73 662.39 443.21 689.94 227.31 -19.43 160.78 8.12 509.73 662.39"/><polygon class="cls-4" points="48.88 99.79 99.79 48.88 570.72 621.63 621.63 570.72 48.88 99.79"/><polygon class="cls-5" points="689.94 443.21 662.39 509.73 8.12 160.78 -19.43 227.31 689.94 443.21"/><polygon class="cls-6" points="-33.74 371.25 -33.74 299.25 704.25 371.25 704.25 299.25 -33.74 371.25"/><polygon class="cls-7" points="662.39 160.78 689.94 227.31 -19.43 443.21 8.12 509.73 662.39 160.78"/><polygon class="cls-8" points="99.79 621.63 48.88 570.72 621.63 99.79 570.72 48.88 99.79 621.63"/><polygon class="cls-9" points="443.21 -19.43 509.73 8.12 160.78 662.39 227.31 689.94 443.21 -19.43"/></g></svg>